<svg width="27" height="27" viewBox="0 0 27 27" fill="none" xmlns="http://www.w3.org/2000/svg">
<ellipse cx="13.3333" cy="13.5" rx="13.3333" ry="13.5" fill="#049045"/>
<g clip-path="url(#clip0_136_1613)">
<path d="M9.36706 8.48154C9.40331 8.57713 9.51099 8.62438 9.60602 8.58701L17.0042 5.69759C17.0987 5.66022 17.1459 5.55313 17.1097 5.45807C17.0723 5.36304 16.9652 5.31636 16.8702 5.3526L9.47253 8.24311C9.37694 8.27996 9.33025 8.38708 9.36706 8.48154Z" fill="white"/>
<path d="M10.1216 9.02306C9.35806 8.98682 8.84777 8.76435 8.48903 8.53966C8.04518 8.26172 8.39731 8.02002 8.63679 7.92112C8.87575 7.82336 15.907 5.11523 15.907 5.11523V5.52888L16.2146 5.41846V4.5L7.98201 7.66628C7.88093 7.70474 7.81445 7.80251 7.81445 7.91072V8.23866V21.208C7.81445 21.208 8.18359 22.4077 10.1216 22.5L18.5217 19.2689V5.79199L10.1216 9.02306Z" fill="white"/>
</g>
<defs>
<clipPath id="clip0_136_1613">
<rect width="18" height="18" fill="white" transform="translate(4.16699 4.5)"/>
</clipPath>
</defs>
</svg>
