<svg width="2603" height="632" viewBox="0 0 2603 632" fill="none" xmlns="http://www.w3.org/2000/svg">
<g clip-path="url(#clip0_1050_125)">
<path d="M1205.89 9.96364e-06C1216.63 9.96364e-06 1226.05 7.12148 1229.07 17.3812L1353.65 445.635H1358.6L1483.07 17.3812C1486.08 7.12148 1495.5 9.96364e-06 1506.24 9.96364e-06H1648.57C1652.4 -0.00346431 1656.17 0.901707 1659.58 2.64096C1662.98 4.38021 1665.93 6.90378 1668.17 10.0038C1670.41 13.1038 1671.88 16.6915 1672.46 20.4714C1673.04 24.2513 1672.72 28.1152 1671.51 31.7449L1478.84 615.464C1477.24 620.281 1474.16 624.472 1470.05 627.441C1465.93 630.409 1460.98 632.005 1455.9 632H1256.23C1251.15 632.005 1246.2 630.409 1242.09 627.441C1237.97 624.472 1234.89 620.281 1233.29 615.464L1040.62 31.7449C1035.43 16.1742 1047.14 9.96364e-06 1063.56 9.96364e-06H1205.89ZM0 607.859V24.1406C0 10.8633 10.8649 9.96364e-06 24.1443 9.96364e-06H147.522C160.801 9.96364e-06 171.666 10.8633 171.666 24.1406V469.655C171.666 482.932 182.531 493.795 195.811 493.795H403.09C416.369 493.795 427.234 504.659 427.234 517.936V607.859C427.234 621.137 416.369 632 403.09 632H24.1443C10.8649 632 0 621.137 0 607.859ZM2603 607.859V24.1406C2603 10.8633 2592.14 9.96364e-06 2578.86 9.96364e-06H2455.48C2442.2 9.96364e-06 2431.33 10.8633 2431.33 24.1406V469.655C2431.33 482.932 2420.47 493.795 2407.19 493.795H2199.91C2186.63 493.795 2175.77 504.659 2175.77 517.936V607.859C2175.77 621.137 2186.63 632 2199.91 632H2578.86C2592.14 632 2603 621.137 2603 607.859Z" fill="#040500"/>
<path d="M1629.5 632H2034.04C2047.37 632 2058.18 621.192 2058.18 607.859V517.936C2058.18 504.603 2047.37 493.795 2034.04 493.795L1629.5 493.795C1616.17 493.795 1605.36 504.603 1605.36 517.936V607.859C1605.36 621.192 1616.17 632 1629.5 632Z" fill="#3C6E71"/>
<path d="M1770.26 385.163L2174.8 385.163C2188.13 385.163 2198.94 374.355 2198.94 361.023V271.099C2198.94 257.766 2188.13 246.958 2174.8 246.958L1770.26 246.958C1756.93 246.958 1746.12 257.766 1746.12 271.099V361.023C1746.12 374.355 1756.93 385.163 1770.26 385.163Z" fill="#3C6E71"/>
<path d="M1910.78 138.205L2315.32 138.205C2328.66 138.205 2339.46 127.397 2339.46 114.065V24.1409C2339.46 10.8084 2328.66 0.000350952 2315.32 0.000350952L1910.78 0.000350952C1897.45 0.000350952 1886.64 10.8084 1886.64 24.1409V114.065C1886.64 127.397 1897.45 138.205 1910.78 138.205Z" fill="#3C6E71"/>
<path d="M509.566 607.859V24.1406C509.566 17.7381 512.11 11.5978 516.638 7.07061C521.166 2.54337 527.307 0 533.71 0L941.025 0C954.304 0 965.169 10.8633 965.169 24.1406V114.064C965.169 127.341 954.304 138.205 941.025 138.205H705.376C692.097 138.205 681.232 149.068 681.232 162.345V222.697C681.232 235.974 692.097 246.837 705.376 246.837H917.605C930.884 246.837 941.749 257.701 941.749 270.978V361.022C941.749 374.299 930.884 385.163 917.605 385.163H705.376C692.097 385.163 681.232 396.026 681.232 409.303V469.655C681.232 482.932 692.097 493.795 705.376 493.795H939.818C953.097 493.795 963.962 504.659 963.962 517.936V607.859C963.962 621.137 953.097 632 939.818 632H533.71C520.431 632 509.566 621.137 509.566 607.859Z" fill="#040500"/>
</g>
<defs>
<clipPath id="clip0_1050_125">
<rect width="2603" height="632" fill="white"/>
</clipPath>
</defs>
</svg>
