<?xml version="1.0" encoding="UTF-8" standalone="no"?><svg xmlns:svg="http://www.w3.org/2000/svg" xmlns="http://www.w3.org/2000/svg" xmlns:xlink="http://www.w3.org/1999/xlink" version="1.0" width="64px" height="64px" viewBox="0 0 128 128" xml:space="preserve"><g><path d="M61.5 0h5a25.8 25.8 0 0 1 5.25 9 26.35 26.35 0 0 1 1.3 10.8l-5 .1A23.38 23.38 0 0 0 67 10a32.3 32.3 0 0 0-5.5-10z" fill="#e8f6ed"/><path d="M61.5 0h5a25.8 25.8 0 0 1 5.25 9 26.35 26.35 0 0 1 1.3 10.8l-5 .1A23.38 23.38 0 0 0 67 10a32.3 32.3 0 0 0-5.5-10z" fill="#e3f4e9" transform="rotate(15 64 64)"/><path d="M61.5 0h5a25.8 25.8 0 0 1 5.25 9 26.35 26.35 0 0 1 1.3 10.8l-5 .1A23.38 23.38 0 0 0 67 10a32.3 32.3 0 0 0-5.5-10z" fill="#dcf1e4" transform="rotate(30 64 64)"/><path d="M61.5 0h5a25.8 25.8 0 0 1 5.25 9 26.35 26.35 0 0 1 1.3 10.8l-5 .1A23.38 23.38 0 0 0 67 10a32.3 32.3 0 0 0-5.5-10z" fill="#d5eede" transform="rotate(45 64 64)"/><path d="M61.5 0h5a25.8 25.8 0 0 1 5.25 9 26.35 26.35 0 0 1 1.3 10.8l-5 .1A23.38 23.38 0 0 0 67 10a32.3 32.3 0 0 0-5.5-10z" fill="#cdebd8" transform="rotate(60 64 64)"/><path d="M61.5 0h5a25.8 25.8 0 0 1 5.25 9 26.35 26.35 0 0 1 1.3 10.8l-5 .1A23.38 23.38 0 0 0 67 10a32.3 32.3 0 0 0-5.5-10z" fill="#c5e8d2" transform="rotate(75 64 64)"/><path d="M61.5 0h5a25.8 25.8 0 0 1 5.25 9 26.35 26.35 0 0 1 1.3 10.8l-5 .1A23.38 23.38 0 0 0 67 10a32.3 32.3 0 0 0-5.5-10z" fill="#bbe4ca" transform="rotate(90 64 64)"/><path d="M61.5 0h5a25.8 25.8 0 0 1 5.25 9 26.35 26.35 0 0 1 1.3 10.8l-5 .1A23.38 23.38 0 0 0 67 10a32.3 32.3 0 0 0-5.5-10z" fill="#b0e0c2" transform="rotate(105 64 64)"/><path d="M61.5 0h5a25.8 25.8 0 0 1 5.25 9 26.35 26.35 0 0 1 1.3 10.8l-5 .1A23.38 23.38 0 0 0 67 10a32.3 32.3 0 0 0-5.5-10z" fill="#b0e0c2" transform="rotate(120 64 64)"/><path d="M61.5 0h5a25.8 25.8 0 0 1 5.25 9 26.35 26.35 0 0 1 1.3 10.8l-5 .1A23.38 23.38 0 0 0 67 10a32.3 32.3 0 0 0-5.5-10z" fill="#9cd8b2" transform="rotate(135 64 64)"/><path d="M61.5 0h5a25.8 25.8 0 0 1 5.25 9 26.35 26.35 0 0 1 1.3 10.8l-5 .1A23.38 23.38 0 0 0 67 10a32.3 32.3 0 0 0-5.5-10z" fill="#90d3a9" transform="rotate(150 64 64)"/><path d="M61.5 0h5a25.8 25.8 0 0 1 5.25 9 26.35 26.35 0 0 1 1.3 10.8l-5 .1A23.38 23.38 0 0 0 67 10a32.3 32.3 0 0 0-5.5-10z" fill="#85cfa1" transform="rotate(165 64 64)"/><path d="M61.5 0h5a25.8 25.8 0 0 1 5.25 9 26.35 26.35 0 0 1 1.3 10.8l-5 .1A23.38 23.38 0 0 0 67 10a32.3 32.3 0 0 0-5.5-10z" fill="#7bcb98" transform="rotate(180 64 64)"/><path d="M61.5 0h5a25.8 25.8 0 0 1 5.25 9 26.35 26.35 0 0 1 1.3 10.8l-5 .1A23.38 23.38 0 0 0 67 10a32.3 32.3 0 0 0-5.5-10z" fill="#70c690" transform="rotate(195 64 64)"/><path d="M61.5 0h5a25.8 25.8 0 0 1 5.25 9 26.35 26.35 0 0 1 1.3 10.8l-5 .1A23.38 23.38 0 0 0 67 10a32.3 32.3 0 0 0-5.5-10z" fill="#65c287" transform="rotate(210 64 64)"/><path d="M61.5 0h5a25.8 25.8 0 0 1 5.25 9 26.35 26.35 0 0 1 1.3 10.8l-5 .1A23.38 23.38 0 0 0 67 10a32.3 32.3 0 0 0-5.5-10z" fill="#5bbe7f" transform="rotate(225 64 64)"/><path d="M61.5 0h5a25.8 25.8 0 0 1 5.25 9 26.35 26.35 0 0 1 1.3 10.8l-5 .1A23.38 23.38 0 0 0 67 10a32.3 32.3 0 0 0-5.5-10z" fill="#50ba77" transform="rotate(240 64 64)"/><path d="M61.5 0h5a25.8 25.8 0 0 1 5.25 9 26.35 26.35 0 0 1 1.3 10.8l-5 .1A23.38 23.38 0 0 0 67 10a32.3 32.3 0 0 0-5.5-10z" fill="#46b66f" transform="rotate(255 64 64)"/><path d="M61.5 0h5a25.8 25.8 0 0 1 5.25 9 26.35 26.35 0 0 1 1.3 10.8l-5 .1A23.38 23.38 0 0 0 67 10a32.3 32.3 0 0 0-5.5-10z" fill="#3cb268" transform="rotate(270 64 64)"/><path d="M61.5 0h5a25.8 25.8 0 0 1 5.25 9 26.35 26.35 0 0 1 1.3 10.8l-5 .1A23.38 23.38 0 0 0 67 10a32.3 32.3 0 0 0-5.5-10z" fill="#33af61" transform="rotate(285 64 64)"/><path d="M61.5 0h5a25.8 25.8 0 0 1 5.25 9 26.35 26.35 0 0 1 1.3 10.8l-5 .1A23.38 23.38 0 0 0 67 10a32.3 32.3 0 0 0-5.5-10z" fill="#2bab5a" transform="rotate(300 64 64)"/><path d="M61.5 0h5a25.8 25.8 0 0 1 5.25 9 26.35 26.35 0 0 1 1.3 10.8l-5 .1A23.38 23.38 0 0 0 67 10a32.3 32.3 0 0 0-5.5-10z" fill="#25a955" transform="rotate(315 64 64)"/><path d="M61.5 0h5a25.8 25.8 0 0 1 5.25 9 26.35 26.35 0 0 1 1.3 10.8l-5 .1A23.38 23.38 0 0 0 67 10a32.3 32.3 0 0 0-5.5-10z" fill="#1ea650" transform="rotate(330 64 64)"/><path d="M61.5 0h5a25.8 25.8 0 0 1 5.25 9 26.35 26.35 0 0 1 1.3 10.8l-5 .1A23.38 23.38 0 0 0 67 10a32.3 32.3 0 0 0-5.5-10z" fill="#16a34a" transform="rotate(345 64 64)"/><animateTransform attributeName="transform" type="rotate" values="0 64 64;15 64 64;30 64 64;45 64 64;60 64 64;75 64 64;90 64 64;105 64 64;120 64 64;135 64 64;150 64 64;165 64 64;180 64 64;195 64 64;210 64 64;225 64 64;240 64 64;255 64 64;270 64 64;285 64 64;300 64 64;315 64 64;330 64 64;345 64 64" calcMode="discrete" dur="1440ms" repeatCount="indefinite"></animateTransform></g></svg>